<svg width="16" height="16" viewBox="0 0 16 16" fill="none" xmlns="http://www.w3.org/2000/svg">
<path fill-rule="evenodd" clip-rule="evenodd" d="M1.14689 4.14689C1.19334 4.10033 1.24852 4.06339 1.30926 4.03818C1.37001 4.01297 1.43513 4 1.50089 4C1.56666 4 1.63178 4.01297 1.69253 4.03818C1.75327 4.06339 1.80845 4.10033 1.85489 4.14689L7.50089 9.79389L13.1469 4.14689C13.1934 4.10041 13.2486 4.06353 13.3093 4.03837C13.37 4.01321 13.4352 4.00026 13.5009 4.00026C13.5666 4.00026 13.6317 4.01321 13.6925 4.03837C13.7532 4.06353 13.8084 4.10041 13.8549 4.14689C13.9014 4.19338 13.9383 4.24857 13.9634 4.30931C13.9886 4.37005 14.0015 4.43515 14.0015 4.50089C14.0015 4.56664 13.9886 4.63174 13.9634 4.69248C13.9383 4.75322 13.9014 4.80841 13.8549 4.85489L7.85489 10.8549C7.80845 10.9015 7.75327 10.9384 7.69253 10.9636C7.63178 10.9888 7.56666 11.0018 7.50089 11.0018C7.43513 11.0018 7.37001 10.9888 7.30926 10.9636C7.24852 10.9384 7.19334 10.9015 7.14689 10.8549L1.14689 4.85489C1.10033 4.80845 1.06339 4.75327 1.03818 4.69253C1.01297 4.63178 1 4.56666 1 4.50089C1 4.43513 1.01297 4.37001 1.03818 4.30926C1.06339 4.24851 1.10033 4.19334 1.14689 4.14689Z" fill="#101828"/>
</svg>
